<?xml version="1.0" encoding="UTF-8" standalone="no"?>
<!-- Created with Inkscape (http://www.inkscape.org/) -->

<svg
   xmlns:dc="http://purl.org/dc/elements/1.1/"
   xmlns:cc="http://creativecommons.org/ns#"
   xmlns:rdf="http://www.w3.org/1999/02/22-rdf-syntax-ns#"
   xmlns:svg="http://www.w3.org/2000/svg"
   xmlns="http://www.w3.org/2000/svg"
   xmlns:sodipodi="http://sodipodi.sourceforge.net/DTD/sodipodi-0.dtd"
   xmlns:inkscape="http://www.inkscape.org/namespaces/inkscape"
   width="64"
   height="64"
   viewBox="0 0 63.999999 63.999999"
   id="svg2"
   version="1.1"
   inkscape:version="0.91 r13725"
   sodipodi:docname="mpv-symbolic.svg">
  <defs
     id="defs4" />
  <sodipodi:namedview
     id="base"
     pagecolor="#ffffff"
     bordercolor="#666666"
     borderopacity="1.0"
     inkscape:pageopacity="0.0"
     inkscape:pageshadow="2"
     inkscape:zoom="5.3710484"
     inkscape:cx="19.094402"
     inkscape:cy="29.883841"
     inkscape:document-units="px"
     inkscape:current-layer="layer1"
     showgrid="false"
     units="px"
     inkscape:window-width="1600"
     inkscape:window-height="838"
     inkscape:window-x="-8"
     inkscape:window-y="-8"
     inkscape:window-maximized="1" />
  <metadata
     id="metadata7">
    <rdf:RDF>
      <cc:Work
         rdf:about="">
        <dc:format>image/svg+xml</dc:format>
        <dc:type
           rdf:resource="http://purl.org/dc/dcmitype/StillImage" />
        <dc:title />
      </cc:Work>
    </rdf:RDF>
  </metadata>
  <g
     inkscape:label="Layer 1"
     inkscape:groupmode="layer"
     id="layer1"
     transform="translate(0,-988.3622)">
    <g
       id="g3544"
       transform="matrix(0.68879718,0,0,0.68879718,105.92468,323.39138)"
       style="fill:#000000">
      <g
         id="g3541"
         style="fill:#000000">
        <path
           inkscape:connector-curvature="0"
           id="path3356"
           style="fill:#000000;fill-opacity:1;fill-rule:nonzero;stroke:none"
           d="m -101.25514,1003.2023 0,8.868 -4.33139,-4.378 4.33139,-4.49 z m -34.88641,34.6291 0,-34.6291 11.11309,11.5224 0,19.1979 c 3.96927,-1.017 8.12235,-1.7161 12.4133,-2.0457 l 0,-16.7595 11.36002,11.776 0,4.9761 c 4.289112,0.321 8.441584,1.0103 12.409625,2.0177 l 0,-7.2498 11.115539,-11.52 0,22.652 c 4.279307,1.9368 8.219163,4.28 11.737459,6.9748 l 0.675229,0 0,-56.7015 -23.528227,23.777 0,-35.68909 -23.982255,24.24329 -12.20069,-12.3312 0,11.86491 -23.527,-23.777 0,68.59519 0.83331,0 c 3.4748,-2.6568 7.36196,-4.9736 11.5806,-6.8932" />
      </g>
      <path
         d="m -71.386993,988.35826 c 3.422711,0 6.203893,-2.78363 6.203893,-6.20635 0,-3.42761 -2.781182,-6.20879 -6.203893,-6.20879 -3.427613,0 -6.208795,2.78118 -6.208795,6.20879 0,3.42272 2.781182,6.20635 6.208795,6.20635"
         style="fill:#000000;fill-opacity:1;fill-rule:nonzero;stroke:none"
         id="path3358"
         inkscape:connector-curvature="0" />
    </g>
  </g>
</svg>
